<?xml version="1.0" ?><svg id="Layer_1" style="enable-background:new 0 0 128 128;" version="1.1" viewBox="0 0 128 128" xml:space="preserve" xmlns="http://www.w3.org/2000/svg" xmlns:xlink="http://www.w3.org/1999/xlink"><style type="text/css">
  .st0{fill:#333434;}
  .st1{fill:#da4693;}
</style><g>
  <path id="svg_4" d="m41.264,72.549l-22.737,0c-1.104,0 -2,0.896 -2,2l0,18.726c0,1.104 0.896,2 2,2l16.127,0c1.104,0 2,-0.896 2,-2s-0.896,-2 -2,-2l-14.127,0l0,-14.726l20.736,0c1.104,0 2,-0.896 2,-2s-0.895,-2 -1.999,-2z" class="st0"/>
  <path fill="black" id="svg_5" d="m18.527,66l80.37,0c1.104,0 2,-0.896 2,-2s-0.896,-2 -2,-2l-78.37,0l0,-16.726c0,-1.104 -0.896,-2 -2,-2s-2,0.896 -2,2l0,18.726c0,1.104 0.896,2 2,2z" class="st1"/>
  <path fill="black" id="svg_6" d="m109.473,14l-80.37,0c-1.104,0 -2,0.896 -2,2s0.896,2 2,2l78.37,0l0,16.725c0,1.104 0.896,2 2,2s2,-0.896 2,-2l0,-18.725c0,-1.104 -0.896,-2 -2,-2z" class="st0"/>
  <path id="svg_7" d="m18.527,36.725l80.37,0c1.104,0 2,-0.896 2,-2s-0.896,-2 -2,-2l-78.37,0l0,-16.725c0,-1.104 -0.896,-2 -2,-2s-2,0.896 -2,2l0,18.725c0,1.104 0.896,2 2,2z" class="st0"/>
  <path id="svg_8" d="m109.473,43.274l-80.37,0c-1.104,0 -2,0.896 -2,2s0.896,2 2,2l78.37,0l0,16.726c0,1.104 0.896,2 2,2s2,-0.896 2,-2l0,-18.726c0,-1.104 -0.896,-2 -2,-2z" class="st1"/>
  <path fill="black" id="svg_9" d="m109.473,72.549l-22.918,0c-1.104,0 -2,0.896 -2,2s0,1.104 2,2l20.917,0l0,14.726l-14.126,0c-1.104,0 -2,0.896 -2,2s0.896,2 2,2l16.127,0c1.104,0 2,-0.896 2,-2l0,-18.726c0,-1.105 -0.896,-2 -2,-2z" class="st0"/>
  <path id="svg_12" fill="black" d="m109.473,72.565531l-80.37,0c-1.104,0 -2,0.896 -2,2s0.896,2 2,2l78.37,0l0,16.725c0,1.104 0.896,2 2,2s2,-0.896 2,-2l0,-18.725c0,-1.104 -0.896,-2 -2,-2z" class="st0"/>
</g></svg>
