<?xml version="1.0" ?><svg id="Layer_1" style="enable-background:new 0 0 128 128;" version="1.1" viewBox="0 0 128 128" xml:space="preserve" xmlns="http://www.w3.org/2000/svg" xmlns:xlink="http://www.w3.org/1999/xlink"><style type="text/css">
  .st0{fill:#333434;}
  .st1{fill:#da4693;}
</style><g>
  <path class="st1" d="m18.527,66l80.37,0c1.104,0 2,-0.896 2,-2s-0.896,-2 -2,-2l-78.37,0l0,-16.726c0,-1.104 -0.896,-2 -2,-2s-2,0.896 -2,2l0,18.726c0,1.104 0.896,2 2,2z" id="svg_5" fill="black"/>
  <path class="st0" d="m109.473,14l-80.37,0c-1.104,0 -2,0.896 -2,2s0.896,2 2,2l78.37,0l0,16.725c0,1.104 0.896,2 2,2s2,-0.896 2,-2l0,-18.725c0,-1.104 -0.896,-2 -2,-2z" id="svg_6" fill="black"/>
  <path fill="black" class="st0" d="m18.527,36.725l80.37,0c1.104,0 2,-0.896 2,-2s-0.896,-2 -2,-2l-78.37,0l0,-16.725c0,-1.104 -0.896,-2 -2,-2s-2,0.896 -2,2l0,18.725c0,1.104 0.896,2 2,2z" id="svg_7"/>
  <path class="st1" d="m109.473,43.274l-80.37,0c-1.104,0 -2,0.896 -2,2s0.896,2 2,2l78.37,0l0,16.726c0,1.104 0.896,2 2,2s2,-0.896 2,-2l0,-18.726c0,-1.104 -0.896,-2 -2,-2z" id="svg_8"/>
  <path class="st0" d="m109.473,72.56553l-80.37,0c-1.104,0 -2,0.896 -2,2s0.896,2 2,2l78.37,0l0,16.725c0,1.104 0.896,2 2,2s2,-0.896 2,-2l0,-18.725c0,-1.104 -0.896,-2 -2,-2z" fill="black" id="svg_12"/>
  <path id="svg_2" fill="black" class="st0" d="m18.527,95.185423l80.37,0c1.104,0 2,-0.896 2,-2s-0.896,-2 -2,-2l-78.37,0l0,-16.725c0,-1.104 -0.896,-2 -2,-2s-2,0.896 -2,2l0,18.725c0,1.104 0.896,2 2,2z"/>
</g></svg>
