<?xml version="1.0" ?><svg id="Layer_1" style="enable-background:new 0 0 128 128;" version="1.1" viewBox="0 0 128 128" xml:space="preserve" xmlns="http://www.w3.org/2000/svg" xmlns:xlink="http://www.w3.org/1999/xlink">
 <style type="text/css">
  .st0{fill:#333434;}
  .st1{fill:#FFFFFF;}
 </style>
 <g>
  <path id="svg_2" d="m28.156,109.681l-5.255,0c-1.104,0 -2,0.896 -2,2s0.896,2 2,2l14.51,0c1.104,0 2,-0.896 2,-2s-0.896,-2 -2,-2l-5.255,0l0,-5.324c0,-1.104 -0.896,-2 -2,-2l-12.156,0l0,-16.176l12.156,0l12.157,0l0,16.176l-4.184,0c-1.104,0 -2,0.896 -2,2s0.896,2 2,2l6.184,0c1.104,0 2,-0.896 2,-2l0,-20.176c0,-1.104 -0.896,-2 -2,-2l-12.157,0l0,-30.39c0,-1.104 -0.896,-2 -2,-2s-2,0.896 -2,2l0,30.391l-12.156,0c-1.104,0 -2,0.896 -2,2l0,20.176c0,1.104 0.896,2 2,2l12.156,0l0,3.323z" class="st0"/>
  <path id="svg_3" d="m97.843,49.791c-1.104,0 -2,0.896 -2,2l0,30.391l-12.156,0c-1.104,0 -2,0.896 -2,2l0,11.75l-29.4,0c-1.104,0 -2,0.896 -2,2s0.896,2 2,2l29.4,0l0,4.426c0,1.104 0.896,2 2,2l12.157,0l0,3.324l-5.255,0c-1.104,0 -2,0.896 -2,2s0.896,2 2,2l14.51,0c1.104,0 2,-0.896 2,-2s-0.896,-2 -2,-2l-5.255,0l0,-5.324c0,-1.104 -0.896,-2 -2,-2l-12.157,0l0,-16.177l24.313,0l0,16.176l-4.184,0c-1.104,0 -2,0.896 -2,2s0.896,2 2,2l6.184,0c1.104,0 2,-0.896 2,-2l0,-20.176c0,-1.104 -0.896,-2 -2,-2l-12.157,0l0,-30.39c0,-1.105 -0.895,-2 -2,-2z" class="st0"/>
  <path id="svg_4" d="m52.286,32.069l29.4,0l0,4.426c0,1.104 0.896,2 2,2l6.184,0c1.104,0 2,-0.896 2,-2s-0.896,-2 -2,-2l-4.184,0l0,-16.176l24.314,0l0,16.176l-12.157,0c-1.104,0 -2,0.896 -2,2l0,5.324l-5.255,0c-1.104,0 -2,0.896 -2,2s0.896,2 2,2l14.51,0c1.104,0 2,-0.896 2,-2s-0.896,-2 -2,-2l-5.255,0l0,-3.324l12.157,0c1.104,0 2,-0.896 2,-2l0,-20.176c0,-1.104 -0.896,-2 -2,-2l-28.313,0c-1.104,0 -2,0.896 -2,2l0,11.75l-29.4,0c-1.104,0 -2,0.896 -2,2s0.895,2 1.999,2z" class="st0"/>
  <path id="svg_5" d="m16,38.495l6.183,0c1.104,0 2,-0.896 2,-2s-0.896,-2 -2,-2l-4.183,0l0,-16.176l12.156,0l12.157,0l0,16.176l-12.157,0c-1.104,0 -2,0.896 -2,2l0,5.324l-5.255,0c-1.104,0 -2,0.896 -2,2s0.896,2 2,2l14.51,0c1.104,0 2,-0.896 2,-2s-0.896,-2 -2,-2l-5.255,0l0,-3.324l12.157,0c1.104,0 2,-0.896 2,-2l0,-20.176c0,-1.104 -0.896,-2 -2,-2l-14.157,0l-14.156,0c-1.104,0 -2,0.896 -2,2l0,20.176c0,1.104 0.896,2 2,2z" class="st0"/>
  <path id="svg_6" d="m30.191,30.952l6.263,-6.262c0.781,-0.781 0.781,-2.047 0,-2.829c-0.781,-0.781 -2.047,-0.781 -2.829,0l-4.849,4.848l-2.089,-2.089c-0.781,-0.78 -2.047,-0.781 -2.829,0c-0.781,0.781 -0.781,2.047 0,2.829l3.503,3.503c0.391,0.39 0.902,0.585 1.414,0.585s1.025,-0.195 1.416,-0.585z" class="st1"/>
  <path id="svg_7" d="m36.454,89.724c-0.781,-0.781 -2.047,-0.781 -2.829,0l-4.849,4.848l-2.089,-2.089c-0.781,-0.78 -2.047,-0.781 -2.829,0c-0.781,0.781 -0.781,2.047 0,2.829l3.503,3.502c0.391,0.39 0.902,0.585 1.414,0.585s1.023,-0.195 1.414,-0.585l6.263,-6.262c0.783,-0.781 0.783,-2.047 0.002,-2.828z" class="st1"/>
  <path id="svg_8" d="m97.877,30.952l6.263,-6.262c0.781,-0.781 0.781,-2.047 0,-2.829c-0.781,-0.781 -2.047,-0.781 -2.829,0l-4.849,4.848l-2.089,-2.089c-0.78,-0.781 -2.048,-0.781 -2.828,0c-0.781,0.781 -0.781,2.047 0,2.828l3.503,3.503c0.391,0.391 0.902,0.586 1.414,0.586s1.025,-0.195 1.415,-0.585z" class="st1"/>
  <path id="svg_9" d="m104.141,89.724c-0.781,-0.781 -2.047,-0.781 -2.829,0l-4.849,4.848l-2.089,-2.089c-0.781,-0.78 -2.047,-0.781 -2.829,0c-0.781,0.781 -0.781,2.047 0,2.829l3.503,3.502c0.391,0.39 0.902,0.585 1.414,0.585s1.023,-0.195 1.414,-0.585l6.263,-6.262c0.782,-0.781 0.782,-2.047 0.002,-2.828z" class="st1"/>
  <path id="svg_10" d="m61.996,67.761146c0.213,0.182 0.326,0.453 0.286,0.729l-0.622,4.289c-0.068,0.479 0.305,0.91 0.794,0.91l3.095,0c0.485,0 0.862,-0.431 0.794,-0.91l-0.625,-4.289c-0.04,-0.276 0.072,-0.547 0.285,-0.729c0.657,-0.561 1.07,-1.393 1.07,-2.318c0,-1.891 -1.718,-3.383 -3.686,-3c-1.222,0.238 -2.197,1.232 -2.411,2.452c-0.202,1.144 0.237,2.198 1.02,2.866z" class="st1"/>
  <path id="svg_11" d="m64,40.648146c-6.192,0 -11.23,5.019 -11.23,11.188l0,3.065l-2.164,0c-1.104,0 -2,0.896 -2,2l0,19.546c0,0.813 0.493,1.546 1.247,1.853l13.395,5.447c0.241,0.098 0.497,0.147 0.753,0.147s0.512,-0.049 0.753,-0.147l13.395,-5.447c0.754,-0.306 1.247,-1.039 1.247,-1.853l0,-19.546c0,-1.104 -0.896,-2 -2,-2l-2.166,0l0,-3.065c0,-6.169 -5.038,-11.188 -11.23,-11.188zm-7.23,11.188c0,-3.963 3.243,-7.188 7.23,-7.188s7.23,3.225 7.23,7.188l0,3.065l-14.46,0l0,-3.065zm18.625,23.266l-11.395,4.633l-11.395,-4.633l0,-16.201l22.789,0l0,16.201l0.001,0z" class="st1"/>
 </g>
</svg>
