<?xml version="1.0" ?><svg id="Layer_1" style="enable-background:new 0 0 128 128;" version="1.1" viewBox="0 0 128 128" xml:space="preserve" xmlns="http://www.w3.org/2000/svg" xmlns:xlink="http://www.w3.org/1999/xlink"><style type="text/css">
  .st0{fill:#333434;}
</style><g><path class="st0" d="M109.014,50.968c0.622-0.356,1.005-1.019,1.005-1.735V38.75c0-0.027-0.009-0.052-0.01-0.078   c-0.005-0.121-0.021-0.241-0.048-0.361c-0.009-0.041-0.015-0.082-0.027-0.122c-0.043-0.148-0.099-0.294-0.179-0.433   c-0.001-0.001-0.002-0.003-0.003-0.004c-0.005-0.008-0.011-0.014-0.016-0.022c-0.078-0.132-0.171-0.248-0.272-0.355   c-0.03-0.032-0.063-0.059-0.096-0.089c-0.09-0.083-0.186-0.156-0.288-0.22c-0.023-0.015-0.041-0.036-0.065-0.05l-9.138-5.242   c-0.616-0.354-1.374-0.354-1.99,0l-8.144,4.671l-14.604-8.377v-9.325c0-0.026-0.009-0.051-0.01-0.077   c-0.005-0.122-0.021-0.243-0.048-0.365c-0.009-0.04-0.015-0.081-0.027-0.12c-0.043-0.148-0.099-0.294-0.18-0.433   c-0.001-0.001-0.002-0.002-0.003-0.004c-0.005-0.009-0.013-0.016-0.018-0.025c-0.078-0.131-0.17-0.247-0.271-0.353   c-0.03-0.031-0.062-0.058-0.094-0.087c-0.092-0.085-0.189-0.159-0.293-0.224c-0.022-0.014-0.038-0.034-0.061-0.047l-9.139-5.242   c-0.616-0.354-1.374-0.354-1.99,0l-9.139,5.242c-0.035,0.02-0.062,0.047-0.095,0.068c-0.06,0.039-0.12,0.08-0.176,0.126   c-0.051,0.042-0.098,0.088-0.144,0.134c-0.045,0.045-0.088,0.089-0.129,0.139c-0.047,0.057-0.088,0.118-0.128,0.179   c-0.021,0.033-0.048,0.06-0.067,0.094c-0.01,0.018-0.015,0.037-0.025,0.055c-0.034,0.064-0.061,0.13-0.088,0.198   c-0.023,0.057-0.047,0.113-0.065,0.171c-0.018,0.062-0.03,0.125-0.042,0.188c-0.013,0.064-0.027,0.128-0.033,0.193   c-0.006,0.063-0.004,0.127-0.005,0.191c0,0.064-0.002,0.127,0.005,0.191c0.006,0.065,0.02,0.128,0.033,0.193   c0.012,0.063,0.024,0.126,0.042,0.188c0.017,0.058,0.042,0.114,0.065,0.171c0.027,0.067,0.054,0.134,0.088,0.198   c0.01,0.018,0.014,0.037,0.025,0.055c0.02,0.034,0.046,0.062,0.067,0.094c0.04,0.061,0.081,0.121,0.128,0.178   c0.041,0.05,0.086,0.096,0.131,0.141c0.045,0.045,0.09,0.089,0.14,0.131c0.058,0.048,0.12,0.09,0.183,0.131   c0.031,0.02,0.057,0.046,0.09,0.065L62,25.142v5.873l-6.144-3.524c-0.018-0.01-0.038-0.015-0.057-0.025   c-0.063-0.033-0.127-0.06-0.193-0.086c-0.058-0.024-0.116-0.048-0.175-0.066c-0.061-0.018-0.123-0.029-0.186-0.041   c-0.065-0.013-0.129-0.027-0.194-0.033c-0.063-0.006-0.127-0.004-0.191-0.004c-0.064,0-0.127-0.002-0.191,0.004   c-0.065,0.006-0.13,0.02-0.194,0.033c-0.062,0.012-0.124,0.023-0.185,0.041c-0.06,0.018-0.118,0.043-0.177,0.067   c-0.065,0.026-0.129,0.052-0.19,0.085c-0.019,0.01-0.039,0.015-0.058,0.026l-15.609,8.953l-8.143-4.671   c-0.616-0.354-1.374-0.354-1.99,0l-9.138,5.242c-0.024,0.014-0.041,0.035-0.065,0.049c-0.102,0.064-0.197,0.137-0.287,0.22   c-0.033,0.03-0.067,0.058-0.097,0.09c-0.101,0.106-0.194,0.223-0.272,0.354c-0.005,0.008-0.012,0.014-0.016,0.022   c-0.001,0.001-0.002,0.003-0.003,0.004c-0.08,0.14-0.136,0.286-0.18,0.434c-0.012,0.039-0.018,0.079-0.027,0.12   c-0.028,0.121-0.044,0.243-0.049,0.365c-0.001,0.026-0.01,0.05-0.01,0.077v10.483c0,0.716,0.383,1.378,1.005,1.735l8.133,4.666   v16.732l-8.133,4.666c-0.024,0.014-0.042,0.035-0.065,0.05c-0.102,0.064-0.197,0.137-0.286,0.219   c-0.033,0.03-0.067,0.058-0.097,0.09c-0.101,0.106-0.194,0.223-0.272,0.354c-0.005,0.008-0.012,0.014-0.016,0.022   c-0.001,0.001-0.002,0.003-0.003,0.004c-0.08,0.14-0.136,0.286-0.18,0.434c-0.012,0.039-0.018,0.079-0.027,0.12   c-0.028,0.121-0.044,0.243-0.049,0.365c-0.001,0.026-0.01,0.05-0.01,0.077V89.25c0,0.716,0.383,1.378,1.005,1.735l9.138,5.242   c0.023,0.013,0.049,0.018,0.073,0.03c0.106,0.056,0.217,0.101,0.333,0.137c0.041,0.013,0.08,0.028,0.122,0.038   c0.151,0.036,0.306,0.061,0.468,0.061s0.317-0.024,0.468-0.061c0.041-0.01,0.08-0.025,0.121-0.038   c0.116-0.036,0.227-0.081,0.334-0.137c0.024-0.012,0.05-0.017,0.073-0.03l8.143-4.671l14.604,8.377v9.325   c0,0.716,0.383,1.378,1.005,1.735l9.139,5.242c0.023,0.013,0.049,0.018,0.073,0.03c0.106,0.056,0.217,0.101,0.334,0.137   c0.041,0.013,0.08,0.028,0.121,0.038c0.151,0.036,0.306,0.061,0.468,0.061s0.317-0.024,0.468-0.061   c0.041-0.01,0.08-0.025,0.121-0.038c0.116-0.036,0.227-0.081,0.334-0.137c0.024-0.012,0.05-0.017,0.073-0.03l9.139-5.242   c0.958-0.55,1.29-1.772,0.74-2.73c-0.549-0.958-1.771-1.287-2.73-0.74L66,111.047v-5.872l23.742-13.619l8.143,4.671   c0.023,0.013,0.049,0.018,0.073,0.03c0.106,0.056,0.217,0.101,0.334,0.137c0.041,0.013,0.08,0.028,0.121,0.038   c0.151,0.036,0.306,0.061,0.468,0.061s0.317-0.024,0.468-0.061c0.041-0.01,0.08-0.025,0.121-0.038   c0.116-0.036,0.227-0.081,0.334-0.137c0.024-0.012,0.05-0.017,0.073-0.03l9.138-5.242c0.622-0.356,1.005-1.019,1.005-1.735V78.766   c0-0.027-0.009-0.052-0.01-0.078c-0.005-0.121-0.021-0.241-0.048-0.361c-0.009-0.041-0.015-0.082-0.027-0.122   c-0.043-0.148-0.099-0.294-0.179-0.433c-0.001-0.001-0.002-0.003-0.003-0.004c-0.005-0.008-0.011-0.014-0.016-0.022   c-0.078-0.132-0.171-0.248-0.272-0.355c-0.03-0.032-0.064-0.059-0.096-0.089c-0.09-0.083-0.185-0.156-0.287-0.219   c-0.024-0.015-0.041-0.036-0.066-0.05l-8.133-4.666V55.634L109.014,50.968z M100.881,51.023V45.15l5.138-2.947v5.872   L100.881,51.023z M90.737,87.515c-0.018-0.011-0.038-0.016-0.057-0.026c-0.061-0.032-0.124-0.058-0.188-0.084   c-0.061-0.025-0.12-0.05-0.182-0.069c-0.057-0.017-0.115-0.027-0.173-0.039c-0.07-0.014-0.138-0.029-0.208-0.036   c-0.057-0.005-0.115-0.004-0.173-0.004c-0.07,0-0.14-0.002-0.209,0.005c-0.06,0.006-0.119,0.019-0.179,0.031   c-0.067,0.013-0.134,0.025-0.199,0.044c-0.057,0.017-0.113,0.041-0.169,0.064c-0.067,0.027-0.132,0.053-0.196,0.087   c-0.019,0.01-0.039,0.015-0.057,0.025l-15.608,8.953l-8.144-4.671c-0.616-0.354-1.374-0.354-1.99,0l-8.144,4.671l-15.608-8.953   c-0.017-0.01-0.036-0.015-0.054-0.024c-0.065-0.035-0.132-0.062-0.2-0.089c-0.056-0.023-0.112-0.047-0.169-0.064   c-0.063-0.019-0.126-0.03-0.191-0.042c-0.063-0.012-0.126-0.026-0.19-0.032s-0.127-0.004-0.192-0.004   c-0.064,0-0.128-0.002-0.191,0.004c-0.064,0.006-0.127,0.02-0.191,0.033c-0.063,0.012-0.127,0.024-0.189,0.042   c-0.059,0.018-0.116,0.042-0.174,0.065c-0.066,0.026-0.131,0.053-0.193,0.086c-0.019,0.01-0.039,0.015-0.057,0.026l-6.144,3.524   v-5.873l8.134-4.665c0.031-0.018,0.056-0.042,0.086-0.062c0.065-0.042,0.129-0.085,0.189-0.135c0.048-0.04,0.091-0.082,0.135-0.125   c0.047-0.047,0.093-0.094,0.136-0.146c0.046-0.056,0.086-0.115,0.125-0.176c0.022-0.033,0.048-0.061,0.068-0.095   c0.01-0.018,0.015-0.037,0.025-0.055c0.034-0.064,0.061-0.13,0.088-0.198c0.023-0.057,0.047-0.113,0.065-0.171   c0.018-0.062,0.03-0.124,0.042-0.188c0.013-0.064,0.027-0.128,0.033-0.193c0.006-0.063,0.004-0.127,0.004-0.191   s0.002-0.127-0.004-0.191c-0.006-0.065-0.02-0.129-0.033-0.193c-0.012-0.063-0.023-0.125-0.042-0.187   c-0.018-0.059-0.042-0.115-0.065-0.173c-0.027-0.067-0.054-0.132-0.088-0.196c-0.01-0.018-0.015-0.038-0.025-0.056   c-0.02-0.035-0.047-0.063-0.069-0.096c-0.039-0.06-0.079-0.118-0.124-0.174c-0.043-0.052-0.089-0.099-0.136-0.146   c-0.044-0.044-0.088-0.087-0.137-0.127c-0.058-0.048-0.12-0.09-0.182-0.13c-0.032-0.021-0.059-0.047-0.092-0.066l-8.134-4.666   v-16.73l8.134-4.666c0.958-0.55,1.29-1.772,0.74-2.73c-0.549-0.958-1.771-1.289-2.73-0.74l-6.144,3.524V45.15l23.742-13.619   l8.143,4.671c0.023,0.013,0.049,0.018,0.073,0.03c0.106,0.056,0.217,0.101,0.334,0.137c0.041,0.013,0.08,0.028,0.121,0.038   c0.151,0.036,0.306,0.061,0.468,0.061s0.317-0.024,0.468-0.061c0.041-0.01,0.08-0.025,0.121-0.038   c0.116-0.036,0.227-0.081,0.334-0.137c0.024-0.012,0.05-0.017,0.073-0.03l8.143-4.671l15.608,8.954l8.134,4.665v5.872l-6.144-3.524   c-0.957-0.55-2.18-0.218-2.73,0.74s-0.218,2.18,0.74,2.73l8.134,4.666v16.731l-8.134,4.666c-0.035,0.02-0.064,0.048-0.097,0.07   c-0.06,0.039-0.118,0.079-0.174,0.124c-0.051,0.042-0.097,0.087-0.143,0.133c-0.045,0.045-0.09,0.091-0.131,0.141   c-0.046,0.056-0.087,0.116-0.126,0.176c-0.022,0.033-0.048,0.061-0.068,0.095c-0.01,0.018-0.015,0.037-0.025,0.056   c-0.034,0.064-0.061,0.129-0.088,0.196c-0.023,0.057-0.047,0.114-0.065,0.173c-0.018,0.061-0.029,0.124-0.042,0.187   c-0.013,0.065-0.027,0.128-0.033,0.193c-0.006,0.063-0.004,0.127-0.004,0.191s-0.002,0.127,0.004,0.191   c0.006,0.065,0.02,0.128,0.033,0.193c0.012,0.063,0.023,0.126,0.042,0.188c0.017,0.058,0.042,0.114,0.065,0.171   c0.027,0.067,0.054,0.134,0.088,0.198c0.01,0.018,0.014,0.037,0.025,0.055c0.02,0.034,0.046,0.062,0.067,0.094   c0.04,0.061,0.081,0.121,0.128,0.178c0.041,0.05,0.086,0.095,0.131,0.141c0.046,0.046,0.091,0.091,0.142,0.132   c0.057,0.047,0.116,0.087,0.177,0.127c0.033,0.021,0.06,0.048,0.095,0.068l8.134,4.665v5.873L90.737,87.515z M64,101.71   l-5.119-2.936L64,95.838l5.119,2.936L64,101.71z M29.119,75.83l5.119,2.936l-5.119,2.936L24,78.766L29.119,75.83z M66,25.142   l5.139-2.947v5.872L66,31.014V25.142z M98.881,81.702l-5.119-2.936l5.119-2.936L104,78.766L98.881,81.702z M98.881,35.813   L104,38.75l-5.119,2.936l-5.119-2.936L98.881,35.813z M64,15.806l5.119,2.936L64,21.678l-5.119-2.936L64,15.806z M29.119,35.813   l5.119,2.936l-5.119,2.936L24,38.75L29.119,35.813z M21.981,48.075v-5.872l5.138,2.947v5.872L21.981,48.075z M21.981,82.219   l5.138,2.947v5.872l-5.138-2.947V82.219z M56.861,102.227L62,105.175v5.873l-5.139-2.948V102.227z M100.881,91.039v-5.872   l5.138-2.947v5.872L100.881,91.039z"/></g></svg>
